{"title":"The.Collector.2009.SWESUB.DVDRip.XviD.AC3.(5.1).-Zen_Bud","uid":5590892,"size":1470268334,"categoryP":"video","categoryS":"movies","magnet":"?xt=urn:btih:e6a42fe7c5f0c04269f02c2fba749ac52e44134b&amp;dn=The.Collector.2009.SWESUB.DVDRip.XviD.AC3.%285.1%29.-Zen_Bud&amp;tr=udp%3A%2F%2Ftracker.openbittorrent.com%3A80&amp;tr=udp%3A%2F%2Fopen.demonii.com%3A1337&amp;tr=udp%3A%2F%2Ftracker.coppersurfer.tk%3A6969&amp;tr=udp%3A%2F%2Fexodus.desync.com%3A6969","seeders":0,"leechers":0,"uploader":"Zen_Bud","files":-1,"time":1274864204,"description":"General\nComplete name                    : The.Collector.avi\nFormat                           : AVI\nFile size                        : 1.37 GiB\nDuration                         : 1h 26mn\nOverall bit rate                 : 2 272 Kbps\n\nVideo\nID                               : 0\nFormat                           : MPEG-4 Visual\nCodec ID/Hint                    : XviD\nDuration                         : 1h 26mn\nBit rate                         : 1 814 Kbps\nWidth                            : 720 pixels\nHeight                           : 428 pixels\nDisplay aspect ratio             : 2.35:1\nFrame rate                       : 25.000 fps\nColor space                      : YUV\nChroma subsampling               : 4:2:0\nBit depth                        : 8 bits\nScan type                        : Progressive\nBits/(Pixel*Frame)               : 0.235\nStream size                      : 1.09 GiB (80%)\nWriting library                  : XviD 1.1.2 (UTC 2006-11-01)\n\nAudio\nID                               : 1\nFormat                           : AC-3\nDuration                         : 1h 26mn\nBit rate                         : 448 Kbps\nChannel(s)                       : 6 channels\nChannel positions                : Front: L C R, Side: L R, LFE\nSampling rate                    : 48.0 KHz\nStream size                      : 276 MiB (20%)\n\n\n","torrent":{"xt":"urn:btih:e6a42fe7c5f0c04269f02c2fba749ac52e44134b","amp;dn":"The.Collector.2009.SWESUB.DVDRip.XviD.AC3.%285.1%29.-Zen_Bud","amp;tr":["udp%3A%2F%2Ftracker.openbittorrent.com%3A80","udp%3A%2F%2Fopen.demonii.com%3A1337","udp%3A%2F%2Ftracker.coppersurfer.tk%3A6969","udp%3A%2F%2Fexodus.desync.com%3A6969"],"infoHash":"e6a42fe7c5f0c04269f02c2fba749ac52e44134b","infoHashBuffer":{"type":"Buffer","data":[230,164,47,231,197,240,192,66,105,240,44,47,186,116,154,197,46,68,19,75]},"announce":[],"urlList":[]}}